<?xml version="1.0" encoding="utf-8"?>
<svg version="1.1" xmlns:xlink="http://www.w3.org/1999/xlink" width="64px" height="10px" preserveAspectRatio="xMinYMid meet" viewBox="717 1208 64 8" xmlns="http://www.w3.org/2000/svg">
  <path d="M 776 1212  L 723 1212  " stroke-width="2" stroke-dasharray="0" stroke="rgba(0, 153, 204, 1)" fill="none" class="stroke" />
  <path d="M 720.5 1208.5  A 3.5 3.5 0 0 0 717 1212 A 3.5 3.5 0 0 0 720.5 1215.5 A 3.5 3.5 0 0 0 724 1212 A 3.5 3.5 0 0 0 720.5 1208.5 Z M 720.5 1210.5  A 1.5 1.5 0 0 1 722 1212 A 1.5 1.5 0 0 1 720.5 1213.5 A 1.5 1.5 0 0 1 719 1212 A 1.5 1.5 0 0 1 720.5 1210.5 Z " fill-rule="nonzero" fill="rgba(0, 153, 204, 1)" stroke="none" class="fill" />
</svg>