<?xml version="1.0" encoding="utf-8"?>
<svg version="1.1" xmlns:xlink="http://www.w3.org/1999/xlink" width="51px" height="35px" xmlns="http://www.w3.org/2000/svg">
  <defs>
    <pattern id="BGPattern" patternUnits="userSpaceOnUse" alignment="0 0" imageRepeat="None" />
    <mask fill="white" id="Clip2844">
      <path d="M 0 35  L 0 0  L 51 0  L 51 35  L 0 35  Z " fill-rule="evenodd" />
    </mask>
    <mask fill="white" id="Clip2845">
      <path d="M 7.5 9  L 45.5 9  L 45.5 28  L 7.5 28  Z M 0 0  L 51 0  L 51 35  L 0 35  Z " fill-rule="evenodd" />
    </mask>
  </defs>
  <g transform="matrix(1 0 0 1 -17 -21 )">
    <path d="M 0 35  L 0 0  L 51 0  L 51 35  L 0 35  Z " fill-rule="nonzero" fill="rgba(242, 242, 242, 1)" stroke="none" transform="matrix(1 0 0 1 17 21 )" class="fill" />
    <path d="M 0 35  L 0 0  L 51 0  L 51 35  L 0 35  Z " stroke-width="2" stroke-dasharray="0" stroke="rgba(121, 121, 121, 1)" fill="none" transform="matrix(1 0 0 1 17 21 )" class="stroke" mask="url(#Clip2844)" />
    <path d="M 50.399283128788085 0.4122566763219016  L 0.6007168712119137 34.5877433236781  M 0.6007168712119137 0.4122566763219016  L 50.399283128788085 34.5877433236781  " stroke-width="1" stroke-dasharray="0" stroke="rgba(121, 121, 121, 1)" fill="none" transform="matrix(1 0 0 1 17 21 )" class="stroke" mask="url(#Clip2845)" />
  </g>
</svg>