<?xml version="1.0" encoding="utf-8"?>
<svg version="1.1" xmlns:xlink="http://www.w3.org/1999/xlink" width="28px" height="23px" xmlns="http://www.w3.org/2000/svg">
  <g transform="matrix(1 0 0 1 -445 -177 )">
    <path d="M 445 177  L 473 177  L 473 200  L 445 200  L 445 177  " fill-rule="nonzero" fill="rgba(204, 204, 204, 1)" stroke="none" class="fill" />
    <path d="M 447 179  L 471 179  L 471 198  L 447 198  L 447 179  " fill-rule="nonzero" fill="rgba(255, 255, 255, 1)" stroke="none" class="fill" />
    <path d="M 461.28499999999997 183.89999999999998  C 460.31899999999996 183.89999999999998  459.56 183.141  459.56 182.17499999999998  C 459.56 181.20899999999997  460.31899999999996 180.45  461.28499999999997 180.45  C 462.251 180.45  463.01 181.20899999999997  463.01 182.17499999999998  C 463.01 183.141  462.251 183.89999999999998  461.28499999999997 183.89999999999998  " fill-rule="nonzero" fill="rgba(204, 204, 204, 1)" stroke="none" class="fill" />
    <path d="M 448 198  L 448 188.1  L 453.75 183.6  L 461.8 189.12857142857143  L 466.4 186.3  L 471 189.12857142857143  L 471 198  L 448 198  " fill-rule="nonzero" fill="rgba(22, 155, 213, 1)" stroke="none" class="fill" />
  </g>
</svg>