<?xml version="1.0" encoding="utf-8"?>
<svg version="1.1" xmlns:xlink="http://www.w3.org/1999/xlink" width="44px" height="41px" xmlns="http://www.w3.org/2000/svg">
  <defs>
    <pattern id="BGPattern" patternUnits="userSpaceOnUse" alignment="0 0" imageRepeat="None" />
    <mask fill="white" id="Clip99">
      <path d="M 0 41  L 0 0  L 44 0  L 44 41  L 0 41  Z " fill-rule="evenodd" />
    </mask>
    <mask fill="white" id="Clip100">
      <path d="M 6.5 12  L 39.5 12  L 39.5 31  L 6.5 31  Z M 0 0  L 44 0  L 44 41  L 0 41  Z " fill-rule="evenodd" />
    </mask>
  </defs>
  <g transform="matrix(1 0 0 1 -2817 -250 )">
    <path d="M 0 41  L 0 0  L 44 0  L 44 41  L 0 41  Z " fill-rule="nonzero" fill="rgba(242, 242, 242, 1)" stroke="none" transform="matrix(1 0 0 1 2817 250 )" class="fill" />
    <path d="M 0 41  L 0 0  L 44 0  L 44 41  L 0 41  Z " stroke-width="2" stroke-dasharray="0" stroke="rgba(121, 121, 121, 1)" fill="none" transform="matrix(1 0 0 1 2817 250 )" class="stroke" mask="url(#Clip99)" />
    <path d="M 43.60742987504172 0.3658039800747666  L 0.39257012495828614 40.634196019925234  M 0.39257012495828614 0.3658039800747666  L 43.60742987504172 40.634196019925234  " stroke-width="1" stroke-dasharray="0" stroke="rgba(121, 121, 121, 1)" fill="none" transform="matrix(1 0 0 1 2817 250 )" class="stroke" mask="url(#Clip100)" />
  </g>
</svg>