<?xml version="1.0" encoding="utf-8"?>
<svg version="1.1" xmlns:xlink="http://www.w3.org/1999/xlink" width="74px" height="37px" xmlns="http://www.w3.org/2000/svg">
  <defs>
    <pattern id="BGPattern" patternUnits="userSpaceOnUse" alignment="0 0" imageRepeat="None" />
    <mask fill="white" id="Clip191">
      <path d="M 0 37  L 0 0  L 74 0  L 74 37  L 0 37  Z " fill-rule="evenodd" />
    </mask>
    <mask fill="white" id="Clip192">
      <path d="M 11 11  L 65 11  L 65 29  L 11 29  Z M 0 0  L 74 0  L 74 37  L 0 37  Z " fill-rule="evenodd" />
    </mask>
  </defs>
  <g transform="matrix(1 0 0 1 -1890 -127 )">
    <path d="M 0 37  L 0 0  L 74 0  L 74 37  L 0 37  Z " fill-rule="nonzero" fill="rgba(242, 242, 242, 1)" stroke="none" transform="matrix(1 0 0 1 1890 127 )" class="fill" />
    <path d="M 0 37  L 0 0  L 74 0  L 74 37  L 0 37  Z " stroke-width="2" stroke-dasharray="0" stroke="rgba(121, 121, 121, 1)" fill="none" transform="matrix(1 0 0 1 1890 127 )" class="stroke" mask="url(#Clip191)" />
    <path d="M 73.1055728090001 0.4472135954999579  L 0.8944271909999159 36.55278640450005  M 0.8944271909999159 0.4472135954999579  L 73.1055728090001 36.55278640450005  " stroke-width="1" stroke-dasharray="0" stroke="rgba(121, 121, 121, 1)" fill="none" transform="matrix(1 0 0 1 1890 127 )" class="stroke" mask="url(#Clip192)" />
  </g>
</svg>