<?xml version="1.0" encoding="utf-8"?>
<svg version="1.1" xmlns:xlink="http://www.w3.org/1999/xlink" width="10px" height="634px" preserveAspectRatio="xMidYMin meet" viewBox="607 474 8 634" xmlns="http://www.w3.org/2000/svg">
  <path d="M 350 1103  L 593 1103  A 3 3 0 0 1 596 1100 A 3 3 0 0 1 599 1103 L 606 1103  A 5 5 0 0 0 611 1098 L 611 714  A 3 3 0 0 0 614 711 A 3 3 0 0 0 611 708 L 611 672  A 3 3 0 0 0 614 669 A 3 3 0 0 0 611 666 L 611 480  " stroke-width="2" stroke-dasharray="0" stroke="rgba(2, 167, 240, 1)" fill="none" class="stroke" />
  <path d="M 618.6 481  L 611 474  L 603.4 481  L 618.6 481  Z " fill-rule="nonzero" fill="rgba(2, 167, 240, 1)" stroke="none" class="fill" />
</svg>