<?xml version="1.0" encoding="utf-8"?>
<svg version="1.1" xmlns:xlink="http://www.w3.org/1999/xlink" width="92px" height="92px" xmlns="http://www.w3.org/2000/svg">
  <defs>
    <pattern id="BGPattern" patternUnits="userSpaceOnUse" alignment="0 0" imageRepeat="None" />
    <mask fill="white" id="Clip2567">
      <path d="M 0 46  C 0 20.24  20.24 0  46 0  C 71.76 0  92 20.24  92 46  C 92 71.76  71.76 92  46 92  C 20.24 92  0 71.76  0 46  Z " fill-rule="evenodd" />
    </mask>
  </defs>
  <g transform="matrix(1 0 0 1 -180 -108 )">
    <path d="M 0 46  C 0 20.24  20.24 0  46 0  C 71.76 0  92 20.24  92 46  C 92 71.76  71.76 92  46 92  C 20.24 92  0 71.76  0 46  Z " fill-rule="nonzero" fill="rgba(242, 242, 242, 1)" stroke="none" transform="matrix(1 0 0 1 180 108 )" class="fill" />
    <path d="M 0 46  C 0 20.24  20.24 0  46 0  C 71.76 0  92 20.24  92 46  C 92 71.76  71.76 92  46 92  C 20.24 92  0 71.76  0 46  Z " stroke-width="0" stroke-dasharray="0" stroke="rgba(121, 121, 121, 1)" fill="none" transform="matrix(1 0 0 1 180 108 )" class="stroke" mask="url(#Clip2567)" />
  </g>
</svg>