<?xml version="1.0" encoding="utf-8"?>
<svg version="1.1" xmlns:xlink="http://www.w3.org/1999/xlink" width="65px" height="36px" xmlns="http://www.w3.org/2000/svg">
  <g transform="matrix(1 0 0 1 -913 -254 )">
    <path d="M 913 254  L 978 254  L 978 290  L 913 290  L 913 254  " fill-rule="nonzero" fill="rgba(204, 204, 204, 1)" stroke="none" class="fill" />
    <path d="M 916 257  L 975 257  L 975 287  L 916 287  L 916 257  " fill-rule="nonzero" fill="rgba(255, 255, 255, 1)" stroke="none" class="fill" />
    <path d="M 949.5 264.79999999999995  C 947.9879999999999 264.79999999999995  946.8 263.61199999999997  946.8 262.09999999999997  C 946.8 260.58799999999997  947.9879999999999 259.4  949.5 259.4  C 951.012 259.4  952.1999999999999 260.58799999999997  952.1999999999999 262.09999999999997  C 952.1999999999999 263.61199999999997  951.012 264.79999999999995  949.5 264.79999999999995  " fill-rule="nonzero" fill="rgba(204, 204, 204, 1)" stroke="none" class="fill" />
    <path d="M 917 286  L 917 270.6  L 931.25 263.6  L 951.2 276.6953846153846  L 962.6 267.8  L 974 276.6953846153846  L 974 286  L 917 286  " fill-rule="nonzero" fill="rgba(22, 155, 213, 1)" stroke="none" class="fill" />
  </g>
</svg>