<?xml version="1.0" encoding="utf-8"?>
<svg version="1.1" xmlns:xlink="http://www.w3.org/1999/xlink" width="250px" height="226px" xmlns="http://www.w3.org/2000/svg">
  <defs>
    <pattern id="BGPattern" patternUnits="userSpaceOnUse" alignment="0 0" imageRepeat="None" />
    <mask fill="white" id="Clip347">
      <path d="M 0 113  C 0 49.71999999999999  54.99999999999999 0  125 0  C 195 0  250 49.71999999999999  250 113  C 250 176.28  195 226  125 226  C 54.99999999999999 226  0 176.28  0 113  Z " fill-rule="evenodd" />
    </mask>
  </defs>
  <g transform="matrix(1 0 0 1 -75 -437 )">
    <path d="M 0 113  C 0 49.71999999999999  54.99999999999999 0  125 0  C 195 0  250 49.71999999999999  250 113  C 250 176.28  195 226  125 226  C 54.99999999999999 226  0 176.28  0 113  Z " fill-rule="nonzero" fill="rgba(215, 215, 215, 1)" stroke="none" transform="matrix(1 0 0 1 75 437 )" class="fill" />
    <path d="M 0 113  C 0 49.71999999999999  54.99999999999999 0  125 0  C 195 0  250 49.71999999999999  250 113  C 250 176.28  195 226  125 226  C 54.99999999999999 226  0 176.28  0 113  Z " stroke-width="0" stroke-dasharray="0" stroke="rgba(121, 121, 121, 1)" fill="none" transform="matrix(1 0 0 1 75 437 )" class="stroke" mask="url(#Clip347)" />
  </g>
</svg>